<svg xmlns="http://www.w3.org/2000/svg" id="Layer_1" data-name="Layer 1" viewBox="0 0 400 300"><defs><style>.cls-1{fill:#fff}.cls-2{fill:none;stroke:#fff;stroke-miterlimit:10}</style></defs><title>example-osm</title><polygon points="60.21 165.03 48.2 171.92 36.19 165.03 36.19 151.24 48.2 144.34 60.21 151.24 60.21 165.03" class="cls-1"/><polygon points="350.4 285.11 338.39 292 326.39 285.11 326.39 271.32 338.39 264.42 350.4 271.32 350.4 285.11" class="cls-1"/><polygon points="311.52 80.97 299.51 87.86 287.51 80.97 287.51 67.18 299.51 60.28 311.52 67.18 311.52 80.97" class="cls-1"/><polygon points="153.42 271.1 141.41 277.99 129.4 271.1 129.4 257.31 141.41 250.41 153.42 257.31 153.42 271.1" class="cls-1"/><polygon points="251.48 179.03 239.47 185.93 227.47 179.03 227.47 165.25 239.47 158.35 251.48 165.25 251.48 179.03" class="cls-1"/><line x1="47.35" x2="141.41" y1="159.04" y2="265.11" class="cls-2"/><line x1="299.51" x2="337.54" y1="74.98" y2="279.12" class="cls-2"/><line x1="240.47" x2="300.51" y1="172.04" y2="75.98" class="cls-2"/><line x1="338.54" x2="142.41" y1="280.12" y2="266.11" class="cls-2"/><line x1="48.35" x2="240.47" y1="160.04" y2="172.04" class="cls-2"/><line x1="338.54" x2="240.47" y1="280.12" y2="172.04" class="cls-2"/><line x1="48.35" x2="288.51" y1="160.04" y2="79.98" class="cls-2"/><polygon points="115.18 7.12 129.03 7 136.11 18.9 129.35 30.91 115.5 31.04 108.42 19.14 115.18 7.12" class="cls-1"/><polygon points="48.96 204.09 62.81 203.97 69.89 215.87 63.13 227.89 49.28 228.01 42.2 216.11 48.96 204.09" class="cls-1"/><line x1="56.49" x2="123.45" y1="215.2" y2="18.65" class="cls-2"/><line x1="123.07" x2="300.51" y1="17.29" y2="75.98" class="cls-2"/><line x1="240.47" x2="68.54" y1="172.04" y2="216.24" class="cls-2"/><polygon points="361.56 153.02 349.55 159.91 337.54 153.02 337.54 139.23 349.55 132.33 361.56 139.23 361.56 153.02" class="cls-1"/><line x1="142.41" x2="350.55" y1="266.11" y2="146.03" class="cls-2"/></svg>